<svg width="80" height="80" viewBox="0 0 80 80" fill="none" xmlns="http://www.w3.org/2000/svg">
<path d="M33.9609 59.1589V60.5664V60.7428H37.0763V66.9997H38.6373V60.7428H41.7527V60.5664V59.1589H33.9609Z" fill="#082EAA"/>
<path d="M47.7698 59.1851V59.1589H45.4839L41.7872 66.9344L41.7578 66.9997H43.4723L44.3932 65.0403L45.0463 63.6753L45.4806 62.7544L46.6072 60.3672L49.7096 66.9736V66.9997H51.4567L47.7698 59.1851Z" fill="#082EAA"/>
<path d="M54.5434 59.1589H52.9922V66.9997H54.5434V59.1589Z" fill="#082EAA"/>
<path d="M17.8428 65.0175H17.833L15.0768 59.1851L15.0638 59.1589H12.4219V66.9997H13.9632V60.5795L17.0068 66.9997H18.5155L21.5917 60.5762V66.9997H23.1429V59.1589H20.6414L17.8428 65.0175Z" fill="#082EAA"/>
<path d="M63.1246 59.1589V65.4583H63.1148L58.4385 59.1753L58.4254 59.1589H56.0938V66.9997H57.6449V60.7101L62.3441 66.9997H64.6758V59.1589H63.1246Z" fill="#082EAA"/>
<path d="M32.4636 59.1589H24.6719V60.7428H32.4636V59.1589Z" fill="#082EAA"/>
<path d="M32.4636 65.416H24.6719V66.9999H32.4636V65.416Z" fill="#082EAA"/>
<path d="M32.4636 62.2876H24.6719V63.8714H32.4636V62.2876Z" fill="#082EAA"/>
<path d="M63.708 9.33377L63.1455 9.10393C63.2225 9.18505 63.3076 9.25801 63.3996 9.32167C64.1254 9.97492 66.2121 12.0254 66.69 14.5234V14.6142C66.7271 14.8301 66.7493 15.0484 66.7565 15.2674C66.7909 15.8171 66.7144 16.3682 66.5315 16.8877C66.3487 17.4073 66.0631 17.8847 65.692 18.2917C65.3934 18.6121 65.0334 18.8692 64.6335 19.0477C64.1219 19.2567 63.5713 19.353 63.0191 19.33C62.467 19.307 61.9263 19.1654 61.4338 18.9147C62.2382 20.4873 63.0911 23.2938 61.7181 24.9148C61.591 16.9973 58.0889 18.9933 55.9901 18.0921C53.8912 17.1908 52.7118 17.0759 50.3468 17.3058C50.2017 17.3139 50.0644 17.374 49.96 17.4751C49.8556 17.5762 49.7911 17.7114 49.7782 17.8562C49.7057 19.4711 49.5484 22.5136 47.2016 23.566C47.9576 22.4168 48.9193 20.8442 48.4475 18.6848C48.1935 17.5175 47.0503 17.2453 45.5745 17.0941C35.3343 15.5456 37.8989 9.74507 38.6126 8.45068L38.2618 9.05554C38.4081 8.77475 38.5696 8.50216 38.7457 8.23898C38.7457 8.27527 38.6731 8.35391 38.6126 8.46883L38.7638 8.20874C35.9815 9.8479 34.3363 14.7291 36.5077 18.5215C38.3223 21.6426 41.0804 22.7132 45.1874 24.0318C42.8708 33.9695 48.4536 33.8909 51.1996 36.3708C51.623 36.8298 52.0017 37.328 52.3307 37.8587C52.924 37.7225 53.4681 37.4254 53.9033 36.9998C54.0658 36.8298 54.1869 36.6245 54.2572 36.4C54.3275 36.1755 54.3451 35.9378 54.3086 35.7055C53.9941 33.776 52.8207 31.29 51.5444 30.6912C50.2682 30.0924 49.2218 30.0864 49.246 28.6649C49.246 27.4855 49.5484 27.3222 48.7076 25.5862C51.4718 26.7476 54.3993 31.4412 55.2159 35.6813C55.235 36.1156 55.1564 36.5488 54.9858 36.9487C54.8151 37.3486 54.5568 37.7051 54.23 37.9918C53.7655 38.4463 53.2055 38.7914 52.5908 39.0019C52.7904 42.9758 53.8005 41.8871 57.4841 42.0262C59.3954 42.1109 59.3954 42.2439 60.2483 40.9314C60.8694 40.1015 61.239 39.1105 61.3128 38.0765C61.3612 37.8104 61.0467 34.8587 60.8592 33.159C60.7402 32.0805 60.718 30.9935 60.7926 29.9109C60.8582 28.6011 61.1917 27.3186 61.7725 26.1427C64.5185 25.8161 65.7948 25.1265 67.0226 24.1164C73.1982 19.0356 68.5832 10.9003 63.708 9.33377Z" fill="#082EAA"/>
<path d="M54.6931 16.4353C55.5338 16.6712 56.4109 17.0402 57.1125 17.1551C58.171 17.3365 58.8 17.1974 59.8888 17.4938C58.4613 15.5401 57.052 11.8445 49.0014 10.4593C49.6486 11.5057 51.4692 12.6126 52.2374 13.5139C50.1022 12.6187 47.6102 10.6287 45.1122 8.63872C43.6968 7.50159 42.4629 6.93908 40.7754 7.73749C39.4507 8.34234 38.5132 10.3142 39.4265 12.4372C41.5617 17.3244 50.6647 15.28 54.6931 16.4353Z" fill="#082EAA"/>
<path d="M51.8217 41.2825C51.4829 40.1877 51.61 38.984 51.2652 38.1493C50.0555 35.1251 41.9565 35.7299 43.6803 24.9454C37.3414 23.3909 33.7123 20.0097 34.553 13.2958C34.7768 11.8502 33.4582 10.7313 31.5651 11.203C28.7767 11.8865 23.9197 15.2798 21.3188 16.1931C19.6313 16.798 16.4074 17.0459 16.2925 14.6507C18.8389 15.8302 22.3894 12.9208 21.6152 9.63647C21.1313 11.814 20.4599 11.7111 18.355 11.4147C16.9518 11.2151 15.3307 12.1466 15.1735 13.6346C15.0888 14.2143 15.1392 14.8058 15.3207 15.363C15.5022 15.9201 15.8099 16.4277 16.2199 16.8463C19.2442 20.1005 24.7665 16.6407 27.4218 15.0741C28.3109 14.5479 31.7828 11.814 33.1195 12.7817C33.2591 12.8896 33.3646 13.0354 33.4236 13.2016C33.4826 13.3678 33.4925 13.5475 33.4522 13.7192C33.2586 14.6931 31.8009 15.8544 31.1477 16.3806C29.0791 18.044 27.7242 18.8 26.4601 21.3707C25.8134 22.6435 25.2869 23.9739 24.8875 25.3446C26.702 24.6671 27.9541 22.9735 29.067 22.0481C28.2202 24.5461 22.8914 27.6853 21.0587 33.371C19.849 37.1029 19.6675 41.9599 18.0889 45.1596C17.5506 46.2423 16.6614 47.325 16.3287 48.1355C17.9316 48.9823 18.5728 48.9581 19.6675 50.5005C18.9666 50.1029 18.2189 49.794 17.4417 49.5811C15.6271 48.9762 15.3489 48.819 14.5021 49.9682C13.6553 51.1174 12.0403 53.8937 11.9375 55.7022L20.847 55.7506L20.9922 51.6981C21.0062 51.3797 21.1454 51.0798 21.3793 50.8634C23.4237 49.0488 21.8027 45.4197 26.7806 41.1857C27.7303 40.3752 28.698 39.2078 29.5267 38.3973C28.692 36.1836 28.1597 35.6936 28.2686 32.2822C28.5529 34.0968 30.0832 37.2542 31.2566 38.8691C31.9751 39.9395 32.5429 41.1037 32.9441 42.3289C34.6014 46.5629 34.7587 47.827 39.5975 46.3088C45.2408 44.5306 44.8537 42.7402 49.9527 40.9377C49.2199 41.9919 48.2893 42.8937 47.2127 43.593C46.771 43.8908 46.4262 44.3113 46.2207 44.8027L44.5997 48.7524C46.184 48.7362 47.7159 49.3196 48.8881 50.3855C47.4667 50.0166 44.5694 48.9279 43.4444 50.2706C42.6581 51.2082 41.7992 54.1961 41.9686 55.7143H50.6482C50.987 54.0207 50.4426 53.2102 50.4305 51.8372C50.4184 50.4642 51.2531 50.7122 51.2531 48.5952C51.2531 46.4782 52.7834 44.1676 53.8116 42.97C53.2491 42.6071 52.4023 43.1696 51.8217 41.2825Z" fill="#082EAA"/>
<path d="M61.783 50.3067C60.4584 49.5991 59.1519 49.8289 56.6901 51.5165C57.1559 50.4277 58.541 49.6112 59.5753 49.1757C61.2144 48.4801 62.1701 49.4358 59.412 42.9578H54.6517C54.0469 44.8389 54.3312 43.6171 54.6517 46.3026C54.7304 47.0042 54.7183 47.8571 54.7848 48.722C54.8392 49.9045 55.0258 51.0772 55.3413 52.2181C55.559 52.956 55.1175 53.9843 55.2324 55.6779L63.9968 55.7383C63.658 53.821 62.8173 50.8572 61.783 50.3067Z" fill="#082EAA"/>
<path d="M27.4843 47.1619C25.0043 50.0773 29.8069 48.6558 30.8956 51.3354C28.942 50.7305 26.6012 48.5349 24.7201 51.3354C23.8854 52.5451 23.6132 53.6096 23.1172 55.6903H32.1235C32.0328 54.4806 31.815 52.666 32.1235 51.4563C32.1761 51.2694 32.2534 51.0904 32.3534 50.924C32.9386 49.8659 33.3086 48.7024 33.4421 47.5006C33.5994 46.2909 31.6941 41.6395 31.1436 40.8472C30.3208 43.1584 29.0804 45.2988 27.4843 47.1619Z" fill="#082EAA"/>
</svg>
